<?xml version="1.0" encoding="UTF-8"?>
<!DOCTYPE svg PUBLIC "-//W3C//DTD SVG 1.1//EN" "http://www.w3.org/Graphics/SVG/1.1/DTD/svg11.dtd">
<!-- Creator: CorelDRAW X8 -->
<svg xmlns="http://www.w3.org/2000/svg" xml:space="preserve" width="16.9332mm" height="16.9332mm" version="1.1" style="shape-rendering:geometricPrecision; text-rendering:geometricPrecision; image-rendering:optimizeQuality; fill-rule:evenodd; clip-rule:evenodd"
viewBox="0 0 1693 1693"
 xmlns:xlink="http://www.w3.org/1999/xlink">
 <defs>
  <style type="text/css">
   <![CDATA[
    .fil0 {fill:#7214B2}
   ]]>
  </style>
 </defs>
 <g id="Слой_x0020_1">
  <metadata id="CorelCorpID_0Corel-Layer"/>
  <g id="_649431768">
   <path class="fil0" d="M820 323c136,0 211,8 331,48 149,49 295,142 361,290 74,168 -26,343 -165,435 -16,11 -30,21 -48,31 -19,10 -35,19 -54,28 -111,56 -269,87 -405,86 -34,-1 -28,-2 -60,22 -37,27 -133,70 -173,73l-25 -107c-8,-32 -14,-26 -80,-51 -112,-43 -243,-131 -299,-235 -193,-354 261,-620 617,-620zm869 428l0 69c-2,32 -9,64 -19,95 -11,34 -19,54 -34,84 -34,67 -55,80 -87,121 -23,30 -77,75 -110,98 -37,26 -68,45 -111,67 -107,53 -246,96 -369,104 -18,1 -91,2 -107,11 -14,9 -22,15 -37,23 -97,49 -166,63 -268,87 -38,9 -85,19 -94,-34 -4,-24 10,-103 -5,-146 -5,-15 -14,-14 -38,-24 -56,-24 -115,-58 -163,-94l-71 -58c-22,-21 -41,-43 -61,-67 -25,-32 -22,-31 -40,-58 -21,-32 -37,-70 -50,-109 -17,-51 -20,-80 -21,-119l0 -44 0 -3c0,-88 47,-192 95,-258 66,-88 140,-149 235,-202 251,-140 572,-161 846,-77l125 48c39,19 78,41 112,63 70,47 129,102 179,170 52,72 86,162 93,253z"/>
   <path class="fil0" d="M1110 760l0 23c0,69 101,129 172,64 61,-57 30,-170 -65,-177 -57,-3 -107,44 -107,90z"/>
   <path class="fil0" d="M380 770c0,58 47,105 102,105 90,0 136,-111 75,-173 -70,-71 -177,-12 -177,68z"/>
   <path class="fil0" d="M745 763c0,35 6,59 32,84 89,86 231,-37 146,-143 -25,-32 -57,-33 -89,-33 -43,0 -89,49 -89,92z"/>
  </g>
 </g>
</svg>
