<?xml version="1.0" encoding="UTF-8"?>
<!DOCTYPE svg PUBLIC "-//W3C//DTD SVG 1.1//EN" "http://www.w3.org/Graphics/SVG/1.1/DTD/svg11.dtd">
<!-- Creator: CorelDRAW X8 -->
<svg xmlns="http://www.w3.org/2000/svg" xml:space="preserve" width="16.9332mm" height="16.9332mm" version="1.1" style="shape-rendering:geometricPrecision; text-rendering:geometricPrecision; image-rendering:optimizeQuality; fill-rule:evenodd; clip-rule:evenodd"
viewBox="0 0 1693 1693"
 xmlns:xlink="http://www.w3.org/1999/xlink">
 <defs>
  <style type="text/css">
   <![CDATA[
    .fil0 {fill:#2c2034}
    .fil1 {fill:#E3D0EF}
   ]]>
  </style>
 </defs>
 <g id="Слой_x0020_1">
  <metadata id="CorelCorpID_0Corel-Layer"/>
  <g id="_650672208">
   <path class="fil0" d="M489 662c0,-316 409,-494 641,-210 14,17 21,30 32,52 49,99 51,220 1,319 -23,47 -40,63 -75,98 -210,213 -599,63 -599,-259zm363 -436l-17 0c-54,1 -69,4 -114,15 -24,6 -29,8 -50,17 -218,99 -338,326 -260,560 33,95 142,247 199,333 36,54 68,104 104,158 39,59 77,139 127,141 60,3 89,-69 131,-132 37,-55 69,-106 106,-162 47,-71 174,-253 200,-331 21,-63 29,-153 14,-234 -38,-206 -218,-364 -440,-365z"/>
   <path class="fil1" d="M852 226c-8,-10 -8,-10 -17,0l17 0z"/>
  </g>
 </g>
</svg>
