<?xml version="1.0" encoding="UTF-8"?>
<!DOCTYPE svg PUBLIC "-//W3C//DTD SVG 1.1//EN" "http://www.w3.org/Graphics/SVG/1.1/DTD/svg11.dtd">
<!-- Creator: CorelDRAW X8 -->
<svg xmlns="http://www.w3.org/2000/svg" xml:space="preserve" width="16.9332mm" height="16.9332mm" version="1.1" style="shape-rendering:geometricPrecision; text-rendering:geometricPrecision; image-rendering:optimizeQuality; fill-rule:evenodd; clip-rule:evenodd"
viewBox="0 0 1693 1693"
 xmlns:xlink="http://www.w3.org/1999/xlink">
 <defs>
  <style type="text/css">
   <![CDATA[
    .fil0 {fill:#7F0000}
   ]]>
  </style>
 </defs>
 <g id="Слой_x0020_1">
  <metadata id="CorelCorpID_0Corel-Layer"/>
  <g id="_342796024">
   <path class="fil0" d="M142 661c0,-44 5,-37 21,-75 34,-85 -1,-82 28,-137 10,-21 20,-34 31,-52 26,-46 3,-78 58,-107 92,-49 469,-7 547,4 33,4 122,17 149,26 36,12 76,57 76,103l0 387c0,67 -52,108 -105,127 -21,8 -39,15 -58,22 -95,34 -132,35 -216,98 -62,47 -111,95 -154,159 -59,87 -47,131 -63,173 -26,66 -97,34 -137,-21 -63,-87 -36,-181 -4,-280 57,-181 82,-145 -1,-145 -52,0 -113,7 -148,-21 -64,-52 -11,-150 -11,-198 0,-25 -13,-42 -13,-63zm-142 210l0 -46c2,-26 7,-53 14,-80 9,-35 -7,-28 -7,-107 0,-34 14,-65 25,-90 8,-20 11,-21 11,-49 -1,-57 13,-86 39,-133 8,-15 16,-21 21,-38 4,-17 6,-28 11,-45 19,-53 67,-94 114,-118 148,-72 585,-11 715,10 66,11 120,26 167,74 40,40 77,103 77,164l0 407c0,51 -29,109 -51,141 -26,36 -60,66 -102,86l-136 52c-61,20 -81,22 -132,57l-53 43c-50,39 -103,107 -113,171 -7,40 -17,74 -37,106 -7,11 -13,16 -21,26 -13,17 -35,30 -55,40 -63,32 -132,22 -190,-13 -17,-10 -26,-18 -40,-30 -9,-8 -11,-7 -19,-17 -6,-8 -9,-10 -16,-18 -34,-37 -76,-126 -76,-197 0,-94 14,-115 33,-195 -22,-2 -56,-17 -71,-26 -71,-45 -103,-106 -108,-175z"/>
   <path class="fil0" d="M1492 245c27,0 42,0 67,25 47,49 13,137 -61,137 -109,0 -102,-162 -6,-162zm-189 26l0 668c0,54 60,119 122,119l146 0c61,0 122,-61 122,-122l0 -671c0,-17 -11,-40 -17,-52 -42,-77 -134,-67 -214,-67 -48,0 -84,8 -110,32 -23,21 -49,51 -49,93z"/>
  </g>
 </g>
</svg>
