<?xml version="1.0" encoding="UTF-8"?>
<!DOCTYPE svg PUBLIC "-//W3C//DTD SVG 1.1//EN" "http://www.w3.org/Graphics/SVG/1.1/DTD/svg11.dtd">
<!-- Creator: CorelDRAW X8 -->
<svg xmlns="http://www.w3.org/2000/svg" xml:space="preserve" width="16.9332mm" height="16.9332mm" version="1.1" style="shape-rendering:geometricPrecision; text-rendering:geometricPrecision; image-rendering:optimizeQuality; fill-rule:evenodd; clip-rule:evenodd"
viewBox="0 0 1693 1693"
 xmlns:xlink="http://www.w3.org/1999/xlink">
 <defs>
  <style type="text/css">
   <![CDATA[
    .fil0 {fill:#7214B2}
   ]]>
  </style>
 </defs>
 <g id="Слой_x0020_1">
  <metadata id="CorelCorpID_0Corel-Layer"/>
  <g id="_649748992">
   <path class="fil0" d="M1528 503c8,3 2,0 7,5l12 28 -19 0 0 -33zm157 318l0 51c-2,61 -11,121 -26,182 -11,45 -21,71 -38,115 -28,70 -69,134 -112,192l-82 92c-49,44 -103,85 -160,119 -72,42 -100,51 -175,76 -14,5 -23,8 -38,11 -96,24 -130,26 -226,26l-4 0c-199,0 -399,-87 -545,-222 -9,-9 -16,-13 -26,-23 -43,-43 -101,-119 -133,-174 -36,-63 -73,-146 -88,-217 -21,-103 -23,-120 -24,-224l0 -5c0,-36 6,-66 9,-95 14,-106 52,-211 106,-301 60,-100 147,-199 243,-264 43,-29 82,-54 128,-75 125,-58 228,-77 382,-77 170,0 362,76 489,180l54 47c5,5 8,9 13,13 6,5 7,4 13,10l25 28c39,40 78,100 107,148 35,60 70,151 86,219 13,55 20,111 22,168zm-1113 -295l-17 0 0 -17c19,0 12,-4 33,-9 0,14 -3,26 -16,26zm29 -40c12,3 15,7 30,7l0 16 -17 0c-13,0 -13,-9 -13,-23zm-33 7l0 -23 23 0c0,15 3,11 -5,18 -4,3 -11,5 -18,5zm43 -20c0,-7 10,-7 10,1 2,13 -10,4 -10,-1zm-62 -3l-24 36c0,0 -10,18 -16,-3 -2,-10 2,-17 7,-23 10,-11 13,-10 33,-10zm-374 1c0,-1 2,-3 2,-2l8 -12c6,-9 6,-10 13,-13 -3,11 -8,12 -19,29l-4 -2zm406 -24l14 13 -14 0 0 -13zm-16 -10c3,24 6,-5 7,23l-49 0c-13,0 -2,1 -10,-3 1,-16 -2,-4 5,-11 2,-2 11,-5 14,-6 8,-3 20,-3 33,-3zm-98 -49c24,-5 7,-10 36,-3 -7,31 -2,18 -26,29 -2,-7 -7,-20 -10,-26zm962 -3l-52 0c-3,-12 -4,-12 11,-19 8,-4 10,-5 19,-7l0 -36c3,2 33,35 36,39 -6,8 -11,13 -14,23zm-1008 -69c-29,0 -14,2 -23,-3 6,-8 9,-8 20,-10 9,-3 14,-4 23,0 -3,10 -7,13 -20,13zm7 -39l-33 0 0 -13c36,0 -4,-7 46,-7 -1,11 -3,20 -13,20zm22 -59l43 0c0,13 -1,12 -7,20 17,0 26,3 46,3 1,10 0,6 4,13l-50 0c-1,-23 -16,-14 -36,-22 -11,-4 -9,-6 -22,-7 -9,-1 -21,0 -30,0l99 -62 113 -47c63,-21 136,-35 207,-35 18,-1 21,-4 36,-4 15,0 20,4 39,4 51,-1 97,11 140,21 25,5 41,11 63,18l164 79c24,17 76,48 92,71 -5,20 -12,17 -29,24 -26,10 -42,42 -4,45 1,16 5,11 7,26 11,-1 25,-9 29,-8 9,2 7,19 10,31 -20,0 -36,-5 -54,-1 -22,5 -20,22 -35,37 -12,12 -20,5 -36,10 -12,4 -7,0 -10,13 -1,6 -2,16 -3,23 9,4 4,3 17,3 -2,8 -3,10 -3,20 -30,0 -35,-9 -64,-2 -23,6 -24,19 -18,54 6,33 53,23 78,23 11,0 9,-7 14,-16 8,-19 26,-34 35,-52 36,5 21,4 53,-17 2,31 47,37 62,59 -15,10 -8,3 -33,3 5,18 19,23 35,18 12,-3 7,1 10,-9l8 -31c-31,-17 -50,-16 -53,-53 26,0 25,-2 40,10 10,8 16,19 29,23 0,34 2,37 25,57 5,4 0,2 8,5 12,-26 -2,-42 29,-49 7,28 -3,25 16,44 17,17 18,12 50,12 15,64 48,62 -40,62 -6,0 -24,-15 -29,-19 -20,-16 -29,-7 -52,-7l0 26c-18,-1 -13,-2 -25,-9 -9,-5 -15,-5 -25,-8 -49,-12 -45,-2 -45,-55l-58 4c-34,4 -22,4 -49,13 -29,10 -44,-7 -78,14 -8,5 -14,7 -22,11l0 46c-31,17 -56,40 -85,59 5,19 2,29 23,30 0,19 0,22 -16,26 0,17 -1,39 0,56 1,24 58,68 72,94l93 -4c23,-10 -1,-15 44,-15 12,0 11,13 28,18 5,1 39,4 44,5 0,16 -9,53 -4,66 7,22 54,80 48,98 -8,27 -24,36 -24,68 0,12 15,17 20,26 13,23 -9,49 15,80 23,29 17,38 17,74l23 0c-5,19 -68,78 -81,89 -17,13 -30,25 -47,38 -261,195 -599,203 -860,47l-101 -73c-9,-9 -14,-11 -23,-20 -36,-36 -73,-72 -102,-114 -63,-93 -110,-189 -132,-303 -20,-101 -20,-214 3,-313 6,-24 11,-44 18,-67 7,-19 12,-47 25,-63l0 39c10,5 20,8 30,13 0,30 -4,55 10,78 14,23 17,40 49,40 1,-35 3,-16 -17,-48 -10,-16 -14,-37 -16,-60l16 0c0,11 3,23 5,35 5,27 30,51 45,73 -12,22 -9,22 3,42 23,36 35,19 73,36 0,0 1,0 2,1 11,-4 5,7 7,-10l19 0 4 23c13,0 37,6 46,9 24,9 34,46 57,55 1,0 51,5 54,5 2,10 5,34 6,46 -7,4 -12,9 -21,15 -33,21 -14,22 -25,73 -3,17 7,19 17,33l35 44c6,9 7,16 7,31 22,5 26,5 42,17 47,32 30,22 30,153 6,3 11,4 17,7 -13,54 -15,55 7,82 14,17 7,40 5,64 -1,12 -2,8 5,20 14,24 23,47 44,64 36,30 16,28 80,28 1,-16 6,-14 -8,-25 -5,-4 -22,-14 -22,-20 0,-13 10,-37 9,-43 -3,-12 -4,-4 -18,-7 -14,-3 -6,-2 -17,-9 12,-18 17,-11 23,-36 -13,-1 -17,-2 -23,-10 9,-13 11,-7 29,-11 11,-2 43,-17 51,-27l33 -49c49,-63 18,-30 18,-87l13 -23c16,0 40,4 52,-4 0,0 11,-8 11,-8 29,-23 3,-78 34,-120 14,-18 24,-23 24,-54 -24,-2 -39,-15 -46,-40l-68 -3c-11,-1 -47,-15 -56,-19 0,-48 -3,-39 -20,-69l-49 0c-12,-24 -25,-53 -55,-56l0 13c-21,0 -41,7 -53,-10 -4,-5 -6,-10 -13,-13 -7,-2 -33,-6 -43,-6 -3,0 -32,36 -42,42 -16,-1 -48,-7 -59,-13l-3 -65c-12,-3 -29,-7 -43,-7 3,-11 6,-15 11,-25 9,-16 4,-10 2,-27 -35,3 -45,47 -92,33 -23,-8 -18,-41 -8,-62 6,-14 11,-29 24,-38 41,-27 81,-18 129,-18 0,26 2,36 36,39 0,-40 -21,-47 47,-87 16,-10 17,-9 22,-27 3,-11 34,-45 45,-54 24,-19 37,-14 57,-41 27,-36 28,-22 48,-17 6,-9 7,-4 10,-16 -31,-1 -34,-23 -17,-23 19,0 19,0 30,16 10,-2 26,-6 36,-6l0 -10 10 0c9,19 -5,10 -10,29 8,10 57,35 59,10 1,-15 -23,-22 -36,-23 2,-31 28,7 29,-46 -9,-6 -17,-13 -29,-16 0,-19 -3,-27 -3,-49 -17,9 -31,19 -56,19 5,-9 3,-24 3,-36 -23,0 -35,-9 -55,-9 -1,0 -21,15 -23,16l0 52c-14,7 -33,5 -42,18 -12,16 -5,29 -30,31l0 -42c-18,-4 -32,-2 -46,-10l-13 -13c-2,-4 -6,-18 -7,-23 34,-18 60,-39 102,-49 0,13 1,13 3,23 16,0 18,3 20,-13 9,0 11,-2 19,-3l-10 -20c35,0 28,-1 43,-23 35,0 49,-19 72,13 -14,8 -47,21 -56,33 24,2 52,14 76,16 1,-7 6,-20 9,-26l33 0c4,-8 8,-13 10,-23 -13,-1 -9,-3 -23,-3 0,-37 1,-30 -32,-44 -10,-4 -28,-13 -36,-16 -28,-7 -63,13 -83,17l0 36 -26 -3c-7,-29 8,-24 23,-46 -25,0 -48,-1 -69,3l-3 20c11,0 16,-1 16,10 0,14 -13,8 -25,10 -29,7 15,16 -60,16 0,-16 -2,-14 -3,-26 15,0 32,2 42,-4 6,-4 19,-20 24,-26 -9,-2 -10,-3 -17,-6 -19,12 -11,22 -40,18 -17,-3 -14,0 -22,-11 -17,-25 -15,-17 -49,-17 -16,0 -30,15 -42,24 -10,7 -7,3 -11,12z"/>
   <path class="fil0" d="M1200 365c15,4 29,12 30,30 -22,0 -20,2 -20,29 54,0 50,5 69,-23 -32,-7 -38,-34 -46,-68 -25,5 -33,1 -33,32zm-6 4c-26,0 -36,22 -36,45 24,0 18,2 41,-14 14,-11 11,-7 11,-28 -13,-1 -8,-3 -16,-3z"/>
   <path class="fil0" d="M778 473l-23 0 0 13c8,3 4,-1 7,7 18,-4 16,-2 22,-10 19,-21 12,-1 17,-19 -17,-8 -19,-6 -23,9z"/>
   <path class="fil0" d="M726 496c8,-4 3,-3 16,-3 0,-15 0,-13 -10,-20 -6,10 -6,7 -6,23z"/>
  </g>
 </g>
</svg>
