<?xml version="1.0" encoding="UTF-8"?>
<!DOCTYPE svg PUBLIC "-//W3C//DTD SVG 1.1//EN" "http://www.w3.org/Graphics/SVG/1.1/DTD/svg11.dtd">
<!-- Creator: CorelDRAW X8 -->
<svg xmlns="http://www.w3.org/2000/svg" xml:space="preserve" width="16.9332mm" height="16.9332mm" version="1.1" style="shape-rendering:geometricPrecision; text-rendering:geometricPrecision; image-rendering:optimizeQuality; fill-rule:evenodd; clip-rule:evenodd"
viewBox="0 0 1693 1693"
 xmlns:xlink="http://www.w3.org/1999/xlink">
 <defs>
  <style type="text/css">
   <![CDATA[
    .fil0 {fill:#7214B2}
   ]]>
  </style>
 </defs>
 <g id="Слой_x0020_1">
  <metadata id="CorelCorpID_0Corel-Layer"/>
  <g id="_342797176">
   <path class="fil0" d="M133 866c0,-232 76,-387 205,-515 119,-120 292,-212 476,-212 147,0 204,6 340,66 150,66 264,187 337,332 96,193 94,432 -3,624 -41,82 -83,132 -145,195 -264,266 -733,260 -996,-3 -104,-105 -214,-281 -214,-487zm-111 -32c0,756 896,1083 1396,604 118,-113 254,-325 254,-552 0,-157 -12,-256 -79,-393 -122,-250 -405,-465 -714,-465l-52 0c-430,0 -805,374 -805,806z"/>
   <path class="fil0" d="M362 414l0 420c0,30 15,45 46,45l419 0c23,0 25,-4 46,-6 12,-54 12,-444 0,-498 -66,-15 -375,-6 -465,-6 -31,0 -46,15 -46,45z"/>
   <path class="fil0" d="M906 912l0 321c-1,120 -60,92 373,92 15,0 26,-11 26,-26l0 -367c0,-16 -11,-26 -26,-26 -58,0 -339,-7 -373,6z"/>
   <path class="fil0" d="M532 932l0 275c0,15 5,19 20,19l288 0c15,0 26,-10 26,-26l0 -268c0,-16 -11,-26 -26,-26l-281 0c-16,0 -27,10 -27,26z"/>
   <path class="fil0" d="M912 670c0,157 -20,209 39,209 72,0 190,16 190,-26l0 -183c0,-15 -11,-26 -26,-26l-177 0c-15,0 -26,11 -26,26z"/>
  </g>
 </g>
</svg>
