<?xml version="1.0" encoding="UTF-8"?>
<!DOCTYPE svg PUBLIC "-//W3C//DTD SVG 1.1//EN" "http://www.w3.org/Graphics/SVG/1.1/DTD/svg11.dtd">
<!-- Creator: CorelDRAW X8 -->
<svg xmlns="http://www.w3.org/2000/svg" xml:space="preserve" width="16.9332mm" height="16.9332mm" version="1.1" style="shape-rendering:geometricPrecision; text-rendering:geometricPrecision; image-rendering:optimizeQuality; fill-rule:evenodd; clip-rule:evenodd"
viewBox="0 0 1693 1693"
 xmlns:xlink="http://www.w3.org/1999/xlink">
 <defs>
  <style type="text/css">
   <![CDATA[
    .fil0 {fill:#127F00}
   ]]>
  </style>
 </defs>
 <g id="Слой_x0020_1">
  <metadata id="CorelCorpID_0Corel-Layer"/>
  <g id="_333263784">
   <path class="fil0" d="M1321 745c0,18 22,7 53,7 51,0 112,-8 146,20 43,35 34,93 21,141 -24,97 3,59 3,133 0,21 -13,42 -20,59 -34,84 0,80 -28,136 -10,20 -20,33 -30,51 -33,57 16,128 -200,128 -178,0 -306,-8 -474,-37 -21,-4 -55,-9 -74,-15 -35,-12 -74,-56 -74,-102l0 -383c0,-66 51,-107 103,-126 21,-7 39,-14 57,-21l116 -39c111,-43 268,-192 299,-323 10,-43 8,-100 66,-100 58,0 122,92 122,160 0,132 -86,303 -86,311zm364 79l0 43c-2,27 -7,54 -14,81 -13,50 36,69 -17,195 -24,55 -3,40 -16,99 -15,65 -48,93 -55,119 -4,16 -6,27 -11,44 -19,52 -66,93 -113,116 -77,38 -176,33 -272,33 -107,0 -449,-28 -531,-68 -81,-39 -147,-124 -147,-210l0 -403c0,-89 71,-185 152,-225 41,-20 158,-58 207,-75 47,-17 77,-49 111,-75 29,-23 71,-71 88,-102 39,-70 16,-100 61,-172 11,-18 29,-36 46,-49 62,-50 153,-42 217,-4 16,10 26,18 39,30l35 34c34,37 76,125 76,196 0,93 -14,114 -33,193 41,3 93,37 120,66 37,40 53,86 57,134z"/>
   <path class="fil0" d="M208 1443c-27,0 -42,0 -66,-26 -47,-48 -14,-135 60,-135 108,0 101,161 6,161zm-200 -685l0 665c0,32 25,67 50,88 46,37 118,30 180,30 47,0 83,-9 109,-32 23,-21 48,-51 48,-93l0 -661c0,-53 -60,-118 -121,-118l-144 0c-61,0 -122,61 -122,121z"/>
  </g>
 </g>
</svg>
