<?xml version="1.0" encoding="UTF-8"?>
<!DOCTYPE svg PUBLIC "-//W3C//DTD SVG 1.1//EN" "http://www.w3.org/Graphics/SVG/1.1/DTD/svg11.dtd">
<!-- Creator: CorelDRAW X8 -->
<svg xmlns="http://www.w3.org/2000/svg" xml:space="preserve" width="16.9332mm" height="16.9332mm" version="1.1" style="shape-rendering:geometricPrecision; text-rendering:geometricPrecision; image-rendering:optimizeQuality; fill-rule:evenodd; clip-rule:evenodd"
viewBox="0 0 1693 1693"
 xmlns:xlink="http://www.w3.org/1999/xlink">
 <defs>
  <style type="text/css">
   <![CDATA[
    .fil0 {fill:#ffffff}
   ]]>
  </style>
 </defs>
 <g id="Слой_x0020_1">
  <metadata id="CorelCorpID_0Corel-Layer"/>
  <g id="_646334064">
   <path class="fil0" d="M61 830c0,214 66,391 202,538 9,10 12,17 23,26 79,69 118,106 224,156 232,107 521,90 733,-48 33,-21 160,-107 160,-151 0,-35 1,-44 -25,-70 -37,-35 -76,-25 -110,7l-46 39c-38,31 -62,47 -105,69 -20,10 -36,19 -57,27 -223,88 -463,39 -641,-119 -9,-7 -13,-9 -22,-18l-52 -59c-28,-35 -54,-79 -73,-120 -63,-136 -78,-319 -23,-465 20,-53 46,-105 77,-149 64,-89 148,-165 250,-209 172,-74 348,-78 520,2 80,38 118,72 182,129 23,21 64,26 95,2 35,-28 40,-73 18,-105 -23,-32 -107,-97 -141,-117l-67 -38c-179,-89 -374,-107 -567,-52 -14,4 -24,8 -37,12 -24,8 -46,16 -69,27l-91 49c-11,6 -19,12 -29,20 -10,7 -17,12 -27,20 -11,8 -17,14 -27,21 -41,34 -43,42 -71,70 -22,21 -45,52 -64,77 -80,109 -140,278 -140,429z"/>
   <path class="fil0" d="M1259 660l0 108 -458 0c-21,0 -46,25 -46,46 0,48 -7,78 17,97 10,8 23,14 39,14l448 0 0 108c0,18 15,33 42,19l48 -27c17,-10 31,-18 48,-28l219 -127c10,-6 16,-8 16,-23 0,-23 -22,-27 -38,-37 -78,-47 -169,-95 -243,-140 -16,-9 -31,-19 -48,-28 -28,-15 -44,-2 -44,18z"/>
  </g>
 </g>
</svg>
