<?xml version="1.0" encoding="UTF-8"?>
<!DOCTYPE svg PUBLIC "-//W3C//DTD SVG 1.1//EN" "http://www.w3.org/Graphics/SVG/1.1/DTD/svg11.dtd">
<!-- Creator: CorelDRAW X8 -->
<svg xmlns="http://www.w3.org/2000/svg" xml:space="preserve" width="16.9332mm" height="16.9332mm" version="1.1" style="shape-rendering:geometricPrecision; text-rendering:geometricPrecision; image-rendering:optimizeQuality; fill-rule:evenodd; clip-rule:evenodd"
viewBox="0 0 1693 1693"
 xmlns:xlink="http://www.w3.org/1999/xlink">
 <defs>
  <style type="text/css">
   <![CDATA[
    .str0 {stroke:#7214B2;stroke-width:20}
    .fil0 {fill:#7214B2}
    .fil1 {fill:#7214B2}
   ]]>
  </style>
 </defs>
 <g id="Слой_x0020_1">
  <metadata id="CorelCorpID_0Corel-Layer"/>
  <path class="fil0" d="M113 860c0,-1 19,-157 21,-163 88,-430 539,-705 1001,-519 97,39 150,79 219,148 288,288 294,749 13,1028 -188,187 -399,253 -670,206 -224,-39 -410,-208 -516,-401 -43,-79 -55,-215 -68,-299zm-65 -26c0,244 104,469 245,592 235,205 565,295 877,150 180,-84 306,-204 393,-380 156,-315 85,-671 -149,-916 -274,-286 -767,-320 -1081,-39 -122,109 -124,100 -211,274 -46,90 -74,189 -74,319z"/>
  <rect class="fil1 str0" x="450" y="601" width="170" height="170"/>
  <rect class="fil1 str0" x="765" y="601" width="170" height="170"/>
  <rect class="fil1 str0" x="1065" y="601" width="170" height="170"/>
  <rect class="fil1 str0" x="450" y="920" width="170" height="170"/>
  <rect class="fil1 str0" x="768" y="919" width="170" height="170"/>
  <rect class="fil1 str0" x="1056" y="920" width="170" height="170"/>
 </g>
</svg>
