<?xml version="1.0" encoding="UTF-8"?>
<!DOCTYPE svg PUBLIC "-//W3C//DTD SVG 1.1//EN" "http://www.w3.org/Graphics/SVG/1.1/DTD/svg11.dtd">
<!-- Creator: CorelDRAW X8 -->
<svg xmlns="http://www.w3.org/2000/svg" xml:space="preserve" width="16.9332mm" height="16.9332mm" version="1.1" style="shape-rendering:geometricPrecision; text-rendering:geometricPrecision; image-rendering:optimizeQuality; fill-rule:evenodd; clip-rule:evenodd"
viewBox="0 0 1693 1693"
 xmlns:xlink="http://www.w3.org/1999/xlink">
 <defs>
  <style type="text/css">
   <![CDATA[
    .fil0 {fill:#7214B2}
   ]]>
  </style>
 </defs>
 <g id="Слой_x0020_1">
  <metadata id="CorelCorpID_0Corel-Layer"/>
  <path class="fil0" d="M428 768c0,-289 365,-455 580,-240 217,217 45,581 -240,581 -180,0 -340,-161 -340,-341zm-105 -26c0,293 179,471 471,471 116,0 163,-40 236,-78 39,57 108,115 160,167 37,36 127,147 181,147 42,0 78,-36 78,-78 0,-56 -282,-320 -314,-341 65,-123 78,-132 78,-288 0,-231 -193,-419 -471,-419 -218,0 -419,201 -419,419z"/>
 </g>
</svg>
