<?xml version="1.0" encoding="UTF-8"?>
<!DOCTYPE svg PUBLIC "-//W3C//DTD SVG 1.1//EN" "http://www.w3.org/Graphics/SVG/1.1/DTD/svg11.dtd">
<!-- Creator: CorelDRAW X8 -->
<svg xmlns="http://www.w3.org/2000/svg" xml:space="preserve" width="16.9332mm" height="16.9332mm" version="1.1" style="shape-rendering:geometricPrecision; text-rendering:geometricPrecision; image-rendering:optimizeQuality; fill-rule:evenodd; clip-rule:evenodd"
viewBox="0 0 1693 1693"
 xmlns:xlink="http://www.w3.org/1999/xlink">
 <defs>
  <style type="text/css">
   <![CDATA[
    .fil0 {fill:#7214B2}
   ]]>
  </style>
 </defs>
 <g id="Слой_x0020_1">
  <metadata id="CorelCorpID_0Corel-Layer"/>
  <g id="_647994536">
   <path class="fil0" d="M1111 172c0,51 20,61 57,85 141,92 249,195 309,361 173,479 -219,903 -597,903 -225,0 -363,-55 -516,-207 -155,-154 -225,-388 -172,-616 7,-30 40,-117 40,-131 0,-83 -117,-132 -156,-36 -127,311 -62,664 169,895 84,83 123,119 235,175 104,51 215,79 327,84l73 0c161,-7 319,-61 455,-157l100 -86c88,-88 120,-144 175,-256 128,-258 76,-581 -80,-814 -35,-52 -103,-126 -151,-162 -39,-31 -138,-112 -201,-112 -40,0 -67,37 -67,74z"/>
   <path class="fil0" d="M843 977c60,0 127,-47 127,-104 0,-88 -6,-99 -113,-178l-234 -183c-67,-50 -125,-96 -191,-145 -39,-29 -161,-125 -200,-135 9,37 106,167 133,202l369 480c23,29 62,63 109,63z"/>
   <path class="fil0" d="M724 120l0 45c0,136 246,136 246,0l0 -45c0,-75 -117,-143 -203,-76 -17,13 -43,49 -43,76z"/>
  </g>
 </g>
</svg>
